<?xml version="1.0" encoding="UTF-8" standalone="no"?>
<!-- Generator: Adobe Illustrator 21.0.0, SVG Export Plug-In . SVG Version: 6.00 Build 0)  -->

<svg
   xmlns:dc="http://purl.org/dc/elements/1.1/"
   xmlns:cc="http://creativecommons.org/ns#"
   xmlns:rdf="http://www.w3.org/1999/02/22-rdf-syntax-ns#"
   xmlns:svg="http://www.w3.org/2000/svg"
   xmlns="http://www.w3.org/2000/svg"
   xmlns:sodipodi="http://sodipodi.sourceforge.net/DTD/sodipodi-0.dtd"
   xmlns:inkscape="http://www.inkscape.org/namespaces/inkscape"
   version="1.1"
   id="Слой_1"
   x="0px"
   y="0px"
   viewBox="0 0 18.2 14.8"
   style="enable-background:new 0 0 18.2 14.8;"
   xml:space="preserve"
   sodipodi:docname="icon6.svg"
   inkscape:version="0.92.4 (5da689c313, 2019-01-14)"><metadata
   id="metadata100"><rdf:RDF><cc:Work
       rdf:about=""><dc:format>image/svg+xml</dc:format><dc:type
         rdf:resource="http://purl.org/dc/dcmitype/StillImage" /><dc:title></dc:title></cc:Work></rdf:RDF></metadata><defs
   id="defs98" /><sodipodi:namedview
   pagecolor="#ffffff"
   bordercolor="#666666"
   borderopacity="1"
   objecttolerance="10"
   gridtolerance="10"
   guidetolerance="10"
   inkscape:pageopacity="0"
   inkscape:pageshadow="2"
   inkscape:window-width="1920"
   inkscape:window-height="1017"
   id="namedview96"
   showgrid="false"
   inkscape:zoom="15.945946"
   inkscape:cx="-1.0906777"
   inkscape:cy="7.4000001"
   inkscape:window-x="-8"
   inkscape:window-y="-8"
   inkscape:window-maximized="1"
   inkscape:current-layer="Слой_1" />
<style
   type="text/css"
   id="style74">
	.st0{fill:none;stroke:#000000;stroke-width:0.5;stroke-miterlimit:10;}
	.st1{fill:#FFFFFF;stroke:#000000;stroke-width:0.5;stroke-miterlimit:10;}
</style>
<g
   id="доставка">
	<path
   class="st0"
   d="M1.9,12h8.3c0.4,0,0.8-0.3,0.8-0.8V3c0-0.4-0.3-0.8-0.8-0.8H1.9C1.4,2.2,1.1,2.6,1.1,3v8.3   C1.1,11.7,1.4,12,1.9,12z"
   id="path76" />
	<path
   class="st0"
   d="M11.2,3.8h3.6c0,0,0.4,0,0.9,0.5c0.2,0.2,0.4,0.5,0.7,0.9c0.5,0.7,1.1,1.4,1.1,1.4s0.4,0.4,0.4,1.1   s0,3.5,0,3.5s0.1,0.8-1.1,0.8c-0.9,0-5.1,0-6.1,0c-0.1,0-0.2,0-0.2,0"
   id="path78" />
	<circle
   class="st1"
   cx="4.7"
   cy="12.4"
   r="1.9"
   id="circle80" />
	<circle
   class="st1"
   cx="14.1"
   cy="12.4"
   r="1.9"
   id="circle82" />
	<g
   id="g90">
		<circle
   class="st1"
   cx="4"
   cy="4.2"
   r="3.7"
   id="circle84" />
		<polyline
   class="st0"
   points="2.7,5.5 4.1,4.4 4.1,1.9   "
   id="polyline86" />
		<circle
   cx="4"
   cy="4.4"
   r="0.5"
   id="circle88" />
	</g>
	<path
   class="st0"
   d="M17.7,8.1h-4c0,0-0.6-0.1-0.6-0.8s0-1.5,0-1.5s0-0.5,0.7-0.5c0.8,0,2.5,0,2.5,0"
   id="path92" />
</g>
<path
   style="fill:#b0f7ff;stroke:none;stroke-width:0.06271186;fill-opacity:1"
   d="M 4.1323451,14.436873 C 3.2262494,14.140721 2.6093223,13.362207 2.6093223,12.514936 V 12.203729 H 2.1051291 c -0.5947114,0 -0.9019755,-0.125911 -1.0949593,-0.448693 C 0.89178871,11.557034 0.8829854,11.402641 0.85339011,9.0054238 L 0.82203417,6.4655933 0.621685,6.152034 C -0.05160827,5.0982867 -0.06925922,3.4745739 0.57984504,2.3031698 0.91221384,1.7033614 1.6396337,1.0053164 2.2411475,0.70895417 3.8857794,-0.10134589 5.8931378,0.32010116 7.0088776,1.7099442 l 0.2097668,0.2613001 1.6730861,0.020903 c 1.5818155,0.019763 1.6827365,0.02806 1.8500005,0.1520932 0.340094,0.2521959 0.459117,0.5042189 0.459117,0.9721516 v 0.4263188 l 1.897034,0.019068 c 2.449056,0.024617 2.299761,-0.039694 3.465462,1.492797 0.35419,0.4656356 0.802015,1.0430336 0.995169,1.2831067 0.548475,0.6817081 0.548325,0.6808082 0.527363,3.1565159 l -0.01808,2.1351765 -0.15678,0.170026 c -0.263463,0.285724 -0.598549,0.401411 -1.167137,0.402951 l -0.508663,0.0014 -0.03379,0.372596 c -0.118542,1.307302 -1.414509,2.215218 -2.649535,1.856185 -0.862074,-0.250611 -1.391224,-0.862344 -1.543496,-1.784381 L 11.935005,12.20375 H 9.3805507 6.826092 L 6.799539,12.564343 C 6.745095,13.303707 6.2522175,14.008638 5.571961,14.320069 5.1510911,14.51275 4.5208973,14.56389 4.132345,14.436894 Z M 5.4962059,13.858377 C 5.8838863,13.647375 6.145736,13.34723 6.2762168,12.96429 6.6024326,12.006899 6.0243685,10.975089 5.0439886,10.764835 4.3765673,10.621699 3.636048,10.944987 3.2703598,11.539147 c -0.261151,0.424311 -0.299941,1.056041 -0.094209,1.534278 0.3822091,0.888469 1.4599221,1.253095 2.3200551,0.784952 z m 9.4205441,-0.0078 c 0.965673,-0.539055 1.13992,-1.857291 0.349723,-2.645759 -0.314478,-0.313789 -0.701493,-0.466564 -1.180879,-0.466156 -0.944068,8.03e-4 -1.647795,0.722563 -1.642246,1.684326 0.0073,1.26839 1.359983,2.049117 2.473402,1.427589 z M 2.8042558,11.4685 c 0.6171782,-1.27492 2.2658825,-1.5760971 3.3143067,-0.605442 0.2245653,0.207909 0.4127166,0.449717 0.4831019,0.620876 l 0.1152851,0.280342 1.8685282,2.5e-4 1.8685293,2.51e-4 0.153928,-0.153929 0.15393,-0.153929 V 7.1011687 2.745418 L 10.568917,2.5830637 10.37597,2.420678 H 8.9458797 7.5157895 L 7.7063101,2.9694068 C 7.8708002,3.4431654 7.8970677,3.6081 7.8985709,4.1766102 7.901349,5.2264021 7.5620998,6.0960132 6.8548353,6.8520809 6.3797259,7.3599749 5.9046072,7.6699891 5.261732,7.8915783 4.0361122,8.3140318 2.7163615,8.1126546 1.6682309,7.3432559 1.5040043,7.2227024 1.3508914,7.1240679 1.3279801,7.1240679 c -0.022911,0 -0.033241,0.9902348 -0.022954,2.2005217 l 0.018703,2.2005214 0.1480492,0.119818 c 0.119155,0.09643 0.2496346,0.119817 0.6685582,0.119817 h 0.5205091 z m 9.3893232,0.02972 c 0.19188,-0.423934 0.540733,-0.774815 0.990458,-0.996213 0.843864,-0.415433 1.817658,-0.222279 2.468262,0.489586 0.168996,0.184908 0.342816,0.434511 0.386268,0.554675 l 0.079,0.218478 h 0.51637 c 0.545437,0 0.752905,-0.04919 0.922431,-0.218719 0.09104,-0.09104 0.103799,-0.295977 0.103799,-1.6671166 V 8.3155933 H 15.605236 13.550302 L 13.325215,8.1626429 C 12.946265,7.9051392 12.894068,7.71263 12.894068,6.5724938 V 5.5695355 l 0.176076,-0.1884903 c 0.255671,-0.2736961 0.540256,-0.3257284 1.78367,-0.3261191 0.634984,-1.995e-4 1.113136,-0.025117 1.113136,-0.058008 0,-0.097602 -0.6349,-0.7583991 -0.821281,-0.8547804 -0.142206,-0.073538 -0.536499,-0.090951 -2.059383,-0.090951 h -1.883503 l -0.01665,3.7470339 c -0.0092,2.0608687 -0.04083,3.7964194 -0.07039,3.8567794 -0.04891,0.09989 -0.0083,0.109746 0.451727,0.109746 h 0.50547 z M 17.66017,7.6237485 c 0,-0.3701298 -0.132159,-0.6307842 -0.645518,-1.273143 C 16.761981,6.034442 16.503367,5.7052119 16.439956,5.6189831 l -0.115295,-0.1567796 -1.392252,0.031356 c -1.050884,0.023668 -1.417643,0.052459 -1.495805,0.1174245 -0.08779,0.072968 -0.103553,0.228513 -0.103553,1.0219184 0,0.9100025 0.0043,0.940101 0.15393,1.0897786 l 0.153928,0.1539294 h 2.009631 2.00963 z M 5.0596085,7.5047747 C 5.5260867,7.3598927 6.099268,7.0080603 6.4571173,6.6469491 8.3735744,4.7130219 7.4343293,1.4456643 4.7821499,0.82022917 3.6107939,0.54400083 2.4400952,0.88477374 1.567631,1.7559276 0.86962677,2.4528834 0.53983078,3.2396827 0.53983078,4.2079662 c 0,0.9683811 0.32785763,1.745247 1.03225012,2.4459395 0.9373663,0.9324427 2.2185066,1.2450087 3.4875276,0.850869 z"
   id="path915"
   inkscape:connector-curvature="0" /><path
   style="fill:#b0f7ff;stroke:none;stroke-width:0.06271186;fill-opacity:1"
   d="M 2.7055918,5.4567623 C 2.6471316,5.3675409 2.6086106,5.2888054 2.6199894,5.2817946 2.6313683,5.2747837 2.8452757,5.1066938 3.0953393,4.9082615 3.4712678,4.6099519 3.5500003,4.5161527 3.5500003,4.3665944 3.5500003,4.2483488 3.6042898,4.1430093 3.70678,4.0623906 3.8624175,3.9399661 3.8635596,3.9317099 3.8635596,2.9290254 V 1.9189831 h 0.2194916 0.2194915 v 1.03786 c 0,0.8063205 0.021283,1.0790164 0.095398,1.2223403 0.1696077,0.327985 -0.038768,0.6872573 -0.3986045,0.6872573 -0.088997,0 -0.3413439,0.1528378 -0.6212525,0.3762712 -0.2592578,0.2069492 -0.4927131,0.3762712 -0.5187895,0.3762712 -0.026076,0 -0.095243,-0.072999 -0.1537024,-0.1622208 z"
   id="path917"
   inkscape:connector-curvature="0" /><path
   style="fill:#a0a0a0;stroke:none;stroke-width:0.06271186;fill-opacity:0"
   d="M 4.1969323,13.943045 C 3.5073251,13.67556 3.1100042,13.108517 3.1123945,12.395229 c 0.00173,-0.51639 0.1388671,-0.82852 0.5162517,-1.175014 0.2756577,-0.253094 0.7606427,-0.458859 1.0815236,-0.458859 0.287674,0 0.7706703,0.196137 1.0303402,0.418405 1.1024061,0.943619 0.4890608,2.733673 -0.9657838,2.818649 -0.2079637,0.01215 -0.4679709,-0.01277 -0.5777939,-0.05537 z"
   id="path919"
   inkscape:connector-curvature="0" /><path
   style="fill:#a0a0a0;stroke:none;stroke-width:0.06271186;fill-opacity:0.01005025"
   d="m 13.55021,13.926405 c -0.616008,-0.228035 -1.046272,-0.839945 -1.05113,-1.49489 -0.01243,-1.675928 2.109162,-2.26103 2.996187,-0.826301 0.167672,0.271203 0.189336,0.361173 0.188234,0.781733 -8.86e-4,0.338515 -0.03448,0.538409 -0.116766,0.694748 -0.162659,0.309052 -0.466417,0.61612 -0.75811,0.76637 -0.321335,0.165517 -0.921916,0.202905 -1.258415,0.07834 z"
   id="path921"
   inkscape:connector-curvature="0" /><path
   style="fill:none;stroke:none;stroke-width:0.06271186;fill-opacity:0"
   d="M 3.2141749,7.5264278 C 2.3121331,7.3080658 1.3954935,6.5966878 0.99209972,5.8019381 0.7135636,5.2531778 0.60417056,4.8040074 0.60328697,4.2054639 0.60187187,3.2468901 0.92221315,2.4787188 1.6129033,1.7844261 2.8935764,0.49707317 4.9328217,0.45150162 6.2799015,1.6801314 7.0325482,2.366597 7.4023055,3.2020793 7.3986388,4.2079662 7.3963122,4.8456205 7.3240606,5.154702 7.0399946,5.7421283 6.8005576,6.2372655 6.1772251,6.8912885 5.6729636,7.1764662 4.9624519,7.5782855 3.9963986,7.7157851 3.2141749,7.5264278 Z M 3.3666084,5.3367797 C 3.651168,5.1125848 3.9461379,4.9291526 4.022097,4.9291526 c 0.188214,0 0.4456768,-0.2137632 0.495222,-0.4111673 C 4.541855,4.4202263 4.519719,4.2788356 4.461655,4.1624432 4.386391,4.0115739 4.365255,3.7375656 4.365255,2.912738 V 1.8562712 H 4.0830512 3.8008478 v 1.0005393 c 0,0.9836261 -0.00265,1.0031895 -0.1567797,1.157319 -0.095319,0.095319 -0.1567797,0.2282426 -0.1567797,0.3390727 0,0.1530234 -0.075519,0.2401363 -0.4703389,0.5425436 -0.2586865,0.1981378 -0.470339,0.3766806 -0.470339,0.3967617 0,0.033948 0.2698078,0.4505219 0.29241,0.4514708 0.00561,2.383e-4 0.2430281,-0.1830037 0.5275879,-0.4071986 z"
   id="path923"
   inkscape:connector-curvature="0" /><path
   style="fill:#a0a0a0;stroke:none;stroke-width:0.06271186"
   d="M 3.2141749,7.5264278 C 2.3121331,7.3080658 1.3954935,6.5966878 0.99209972,5.8019381 0.7135636,5.2531778 0.60417056,4.8040074 0.60328697,4.2054639 0.60187187,3.2468901 0.92221315,2.4787188 1.6129033,1.7844261 2.8935764,0.49707317 4.9328217,0.45150162 6.2799015,1.6801314 7.0325482,2.366597 7.4023055,3.2020793 7.3986388,4.2079662 7.3963122,4.8456205 7.3240606,5.154702 7.0399946,5.7421283 6.8005576,6.2372655 6.1772251,6.8912885 5.6729636,7.1764662 4.9624519,7.5782855 3.9963986,7.7157851 3.2141749,7.5264278 Z M 3.3666084,5.3367797 C 3.651168,5.1125848 3.9461379,4.9291526 4.022097,4.9291526 c 0.188214,0 0.4456768,-0.2137632 0.495222,-0.4111673 C 4.541855,4.4202263 4.519719,4.2788356 4.461655,4.1624432 4.386391,4.0115739 4.365255,3.7375656 4.365255,2.912738 V 1.8562712 H 4.0830512 3.8008478 v 1.0005393 c 0,0.9836261 -0.00265,1.0031895 -0.1567797,1.157319 -0.095319,0.095319 -0.1567797,0.2282426 -0.1567797,0.3390727 0,0.1530234 -0.075519,0.2401363 -0.4703389,0.5425436 -0.2586865,0.1981378 -0.470339,0.3766806 -0.470339,0.3967617 0,0.033948 0.2698078,0.4505219 0.29241,0.4514708 0.00561,2.383e-4 0.2430281,-0.1830037 0.5275879,-0.4071986 z"
   id="path925"
   inkscape:connector-curvature="0" /><path
   style="fill:#a0a0a0;stroke:none;stroke-width:0.06271186"
   d="M 3.0130865,7.4354574 C 2.3235025,7.2167748 1.5822573,6.6636335 1.1930748,6.0773053 0.80690265,5.4955124 0.64662398,4.9430901 0.65070853,4.2079662 0.65749602,2.9863769 1.1679365,2.0292377 2.1607569,1.3764383 2.3557306,1.2482391 2.5293647,1.1273793 2.5466105,1.1078609 c 0.017246,-0.019518 0.059576,-0.037062 0.094068,-0.038985 0.1438113,-0.00802 0.4076271,-0.10782464 0.4076271,-0.15420968 0,-0.0275233 0.056441,-0.0352828 0.1254237,-0.0172433 0.068983,0.0180395 0.1254237,0.006175 0.1254237,-0.0263658 0,-0.0325406 0.085055,-0.0466814 0.18901,-0.031424 0.1039554,0.0152574 0.2746941,-0.007751 0.3794192,-0.0511294 0.1349615,-0.0559029 0.2305821,-0.0603348 0.3283631,-0.0152192 0.075874,0.035008 0.3072756,0.0952707 0.5142247,0.13391699 0.793402,0.14816199 1.7026703,0.78933209 2.172367,1.53184339 0.1136126,0.1796016 0.2216043,0.3406585 0.2399814,0.3579043 0.018378,0.017246 0.034285,0.059576 0.03535,0.094068 0.00528,0.1710796 0.1093275,0.470339 0.1635274,0.470339 0.033787,0 0.047896,0.021899 0.031354,0.048664 -0.016542,0.026765 -0.010692,0.3371891 0.013001,0.6898305 0.023693,0.3526414 0.025058,0.6411662 0.00303,0.6411662 -0.022024,0 -0.057359,0.1082883 -0.078523,0.2406406 -0.103097,0.644732 -0.7779029,1.5922022 -1.4623203,2.0531901 -0.2008765,0.1352996 -0.3793403,0.26011 -0.396586,0.2773558 -0.017246,0.017246 -0.073686,0.035489 -0.1254238,0.04054 C 5.2541952,7.3577919 5.0436688,7.40718 4.8380958,7.4624893 4.3257588,7.6003325 3.494155,7.5880147 3.0130865,7.4354574 Z M 3.2325381,5.4717152 C 3.6983034,5.107599 4.0918318,4.8647693 4.1392711,4.9122087 4.1605248,4.9334624 4.2644164,4.8542534 4.3701414,4.7361886 4.5258758,4.5622777 4.5550316,4.4858093 4.5237205,4.3333899 4.4227248,3.8417528 4.3714183,3.2666229 4.3684749,2.5931356 L 4.3652546,1.8562712 H 4.0913203 3.8173861 L 3.7887022,2.851538 c -0.026013,0.9025819 -0.041383,1.0114111 -0.1650488,1.1686268 -0.075001,0.095348 -0.136365,0.2285462 -0.136365,0.2959961 0,0.1140224 -0.6285979,0.78782 -0.6830625,0.7321787 -0.013524,-0.013816 -0.080693,0.050027 -0.1492648,0.1418717 L 2.5302844,5.3572021 2.6681415,5.5508045 c 0.075821,0.1064813 0.1553444,0.1936024 0.1767178,0.1936024 0.021373,0 0.1958289,-0.1227113 0.3876788,-0.2726917 z"
   id="path927"
   inkscape:connector-curvature="0" /></svg>