<?xml version="1.0" encoding="UTF-8" standalone="no"?>
<!-- Generator: Adobe Illustrator 21.0.0, SVG Export Plug-In . SVG Version: 6.00 Build 0)  -->

<svg
   xmlns:dc="http://purl.org/dc/elements/1.1/"
   xmlns:cc="http://creativecommons.org/ns#"
   xmlns:rdf="http://www.w3.org/1999/02/22-rdf-syntax-ns#"
   xmlns:svg="http://www.w3.org/2000/svg"
   xmlns="http://www.w3.org/2000/svg"
   xmlns:sodipodi="http://sodipodi.sourceforge.net/DTD/sodipodi-0.dtd"
   xmlns:inkscape="http://www.inkscape.org/namespaces/inkscape"
   version="1.1"
   id="Слой_1"
   x="0px"
   y="0px"
   viewBox="0 0 18.2 14.8"
   style="enable-background:new 0 0 18.2 14.8;"
   xml:space="preserve"
   sodipodi:docname="icon6.svg"
   inkscape:version="0.92.4 (5da689c313, 2019-01-14)"><metadata
   id="metadata64"><rdf:RDF><cc:Work
       rdf:about=""><dc:format>image/svg+xml</dc:format><dc:type
         rdf:resource="http://purl.org/dc/dcmitype/StillImage" /><dc:title></dc:title></cc:Work></rdf:RDF></metadata><defs
   id="defs62" /><sodipodi:namedview
   pagecolor="#ffffff"
   bordercolor="#666666"
   borderopacity="1"
   objecttolerance="10"
   gridtolerance="10"
   guidetolerance="10"
   inkscape:pageopacity="0"
   inkscape:pageshadow="2"
   inkscape:window-width="1920"
   inkscape:window-height="1017"
   id="namedview60"
   showgrid="false"
   inkscape:zoom="57.297297"
   inkscape:cx="3.4278305"
   inkscape:cy="7.4000001"
   inkscape:window-x="-8"
   inkscape:window-y="-8"
   inkscape:window-maximized="1"
   inkscape:current-layer="Слой_1" />
<style
   type="text/css"
   id="style38">
	.st0{fill:none;stroke:#000000;stroke-width:0.5;stroke-miterlimit:10;}
	.st1{fill:#FFFFFF;stroke:#000000;stroke-width:0.5;stroke-miterlimit:10;}
</style>
<g
   id="доставка"
   style="fill:none">
	<path
   class="st0"
   d="M1.9,12h8.3c0.4,0,0.8-0.3,0.8-0.8V3c0-0.4-0.3-0.8-0.8-0.8H1.9C1.4,2.2,1.1,2.6,1.1,3v8.3   C1.1,11.7,1.4,12,1.9,12z"
   id="path40"
   style="fill:none" />
	<path
   class="st0"
   d="M11.2,3.8h3.6c0,0,0.4,0,0.9,0.5c0.2,0.2,0.4,0.5,0.7,0.9c0.5,0.7,1.1,1.4,1.1,1.4s0.4,0.4,0.4,1.1   s0,3.5,0,3.5s0.1,0.8-1.1,0.8c-0.9,0-5.1,0-6.1,0c-0.1,0-0.2,0-0.2,0"
   id="path42"
   style="fill:none" />
	<circle
   class="st1"
   cx="4.7"
   cy="12.4"
   r="1.9"
   id="circle44"
   style="fill:none" />
	<circle
   class="st1"
   cx="14.1"
   cy="12.4"
   r="1.9"
   id="circle46"
   style="fill:none" />
	<g
   id="g54"
   style="fill:none">
		<circle
   class="st1"
   cx="4"
   cy="4.2"
   r="3.7"
   id="circle48"
   style="fill:none" />
		<polyline
   class="st0"
   points="2.7,5.5 4.1,4.4 4.1,1.9   "
   id="polyline50"
   style="fill:none" />
		<circle
   cx="4"
   cy="4.4"
   r="0.5"
   id="circle52"
   style="fill:none" />
	</g>
	<path
   class="st0"
   d="M17.7,8.1h-4c0,0-0.6-0.1-0.6-0.8s0-1.5,0-1.5s0-0.5,0.7-0.5c0.8,0,2.5,0,2.5,0"
   id="path56"
   style="fill:none" />
</g>
<path
   style="fill:none;stroke:none;stroke-width:0.01745283"
   d="M 3.5993087,7.6182395 C 2.8098145,7.5262485 2.030872,7.1328219 1.4946105,6.5552037 L 1.3590321,6.4091692 1.3637143,4.627863 1.3683965,2.8465566 1.4148839,2.7592925 C 1.474641,2.6471191 1.5724691,2.5533463 1.6825475,2.5027245 l 0.087264,-0.04013 1.0340802,-0.00502 1.0340802,-0.00502 L 3.8378564,3.3651192 3.837741,4.2776838 3.1922172,4.7838159 C 2.8371792,5.0621935 2.5466415,5.2964939 2.546578,5.3044885 2.5463813,5.3292598 2.8458846,5.7021128 2.8615386,5.6965843 2.8696623,5.6937154 3.2104897,5.4289352 3.6189329,5.1081838 L 4.3615569,4.5249995 V 3.4893227 2.4536457 l 1.3045991,0.00447 1.3045991,0.00447 0.082414,0.1570754 C 7.2247234,2.946632 7.3523258,3.3416164 7.4062833,3.7127029 7.4418433,3.9572621 7.4416953,4.4426688 7.4059866,4.6855817 7.2621542,5.6640381 6.7244429,6.513486 5.8971906,7.0691073 5.7164427,7.1905061 5.3103879,7.3918039 5.1207543,7.4540182 4.8926849,7.5288423 4.6625409,7.5820384 4.4435632,7.6105455 4.2250959,7.6389862 3.8098407,7.6427707 3.599308,7.6182395 Z"
   id="path873"
   inkscape:connector-curvature="0" /><path
   style="fill:none;stroke:none;stroke-width:0.01745283"
   d="M 1.27118,2.1071021 C 1.3067267,2.0406824 1.5661226,1.761426 1.7105248,1.6341189 2.120605,1.2725864 2.6350579,0.9991606 3.1573116,0.8651685 3.5135466,0.77377103 3.9922831,0.73847098 4.3528305,0.7770159 5.1806338,0.86551362 5.9538296,1.2513571 6.5152358,1.8561085 l 0.08506,0.091627 H 5.4809263 c -0.9833598,0 -1.1193694,-0.00318 -1.1193694,-0.026179 0,-0.022107 -0.040723,-0.026179 -0.2617924,-0.026179 -0.218218,0 -0.2617925,0.00425 -0.2617925,0.025553 0,0.022108 -0.1464552,0.026226 -1.0864387,0.030542 -1.083782,0.00498 -1.0867161,0.00509 -1.1998821,0.045222 -0.062394,0.022128 -0.1512707,0.063361 -0.197504,0.091627 -0.098736,0.060367 -0.1061183,0.062038 -0.082967,0.018779 z"
   id="path883"
   inkscape:connector-curvature="0" /><path
   style="fill:none;stroke:none;stroke-width:0.01745283"
   d="M 0.75325075,5.3320385 C 0.58443551,4.8386004 0.526575,4.3687477 0.57474406,3.8824861 0.6069429,3.5574421 0.69364175,3.1960251 0.80488123,2.9231252 l 0.0399304,-0.09796 -0.004525,1.1974881 c -0.002489,0.6586185 -0.006416,1.2714031 -0.008726,1.3617435 l -0.004201,0.1642554 z"
   id="path885"
   inkscape:connector-curvature="0" /><path
   style="fill:none;stroke:none;stroke-width:0.01745283"
   d="M 4.4112831,14.01644 C 3.6649957,13.874736 3.124258,13.265709 3.0601558,12.494678 c -0.00653,-0.0786 -0.00683,-0.163033 -6.626e-4,-0.187618 l 0.011219,-0.0447 h 1.6338236 1.6338237 l -0.00944,0.222523 c -0.010879,0.256507 -0.048129,0.409018 -0.1531778,0.62715 -0.206709,0.429226 -0.6083077,0.75847 -1.0724422,0.879222 -0.1841909,0.04792 -0.5098639,0.05977 -0.6920191,0.02519 z"
   id="path887"
   inkscape:connector-curvature="0" /><path
   style="fill:none;stroke:none;stroke-width:0.01745283"
   d="m 3.2096701,11.716228 c 0,-0.04387 0.1725305,-0.301958 0.2807983,-0.420049 0.2093461,-0.228342 0.4955176,-0.40348 0.7925508,-0.485046 0.2069547,-0.05683 0.6205133,-0.05744 0.8261582,-0.0012 0.4531582,0.123899 0.8438454,0.43588 1.0475646,0.836529 0.020549,0.04041 0.037362,0.07772 0.037362,0.0829 0,0.0052 -0.6714976,0.0094 -1.492217,0.0094 -1.2078939,0 -1.492217,-0.0043 -1.492217,-0.02255 z"
   id="path889"
   inkscape:connector-curvature="0" /><path
   style="fill:none;stroke:none;stroke-width:0.01745283"
   d="m 13.899529,14.031396 c -0.378447,-0.05993 -0.665503,-0.198992 -0.931513,-0.451273 -0.158631,-0.150443 -0.260921,-0.291748 -0.352201,-0.486533 -0.09633,-0.205565 -0.139084,-0.382698 -0.151132,-0.626161 l -0.01015,-0.20507 h 1.645702 1.645702 l -0.01021,0.20507 c -0.02045,0.410996 -0.162516,0.75259 -0.433637,1.042691 -0.220591,0.236034 -0.508522,0.408802 -0.800445,0.480294 -0.145117,0.03554 -0.488779,0.05893 -0.602122,0.04098 z"
   id="path891"
   inkscape:connector-curvature="0" /><path
   style="fill:none;stroke:none;stroke-width:0.01745283"
   d="m 12.649517,11.63842 c 0.11796,-0.233361 0.314208,-0.449125 0.551405,-0.606238 0.156403,-0.103597 0.290078,-0.16396 0.49239,-0.222347 0.117304,-0.03385 0.175509,-0.0392 0.415651,-0.03818 0.252022,0.0011 0.294424,0.0058 0.434943,0.04862 0.442605,0.134832 0.814283,0.436788 1.007049,0.818141 l 0.05073,0.100354 H 14.100236 12.59879 Z"
   id="path893"
   inkscape:connector-curvature="0" /><path
   style="fill:#b0f7ff;stroke:none;stroke-width:0.01745283;fill-opacity:0"
   d="M 4.4837267,14.530248 C 3.4092835,14.420107 2.5639154,13.494236 2.5639154,12.427616 V 12.24839 l -0.440684,-0.0079 C 1.7842795,12.234426 1.6583735,12.225879 1.5778305,12.203472 1.2007297,12.098564 0.92941065,11.812082 0.87199052,11.458187 0.86001481,11.384378 0.85375666,10.531884 0.85366985,8.9625213 L 0.85353801,6.5789577 0.72612975,6.3882288 C 0.33140695,5.7973332 0.11040271,5.1384988 0.06938154,4.430401 0.01474505,3.4872787 0.29088173,2.5786519 0.86442428,1.8143153 0.99846473,1.6356851 1.2931562,1.330183 1.4905663,1.1652034 2.0321807,0.71256554 2.7176118,0.40921771 3.4540097,0.29625201 3.7296793,0.25396347 4.2777715,0.25393453 4.5529159,0.29619407 5.2290225,0.40003736 5.840884,0.65614481 6.3846873,1.0629203 6.5995615,1.2236503 6.9735451,1.5967942 7.1271844,1.8037501 L 7.247033,1.9651888 h 1.5495634 c 1.0565231,0 1.5789906,0.00609 1.6420496,0.019145 0.273631,0.056644 0.565073,0.2869356 0.685056,0.5413181 0.100444,0.2129561 0.11427,0.2955178 0.11427,0.6823545 v 0.3453898 h 1.789651 c 2.013409,0 1.931975,-0.00477 2.217914,0.1300442 0.300322,0.1416009 0.55621,0.3479926 0.796693,0.6425894 0.08016,0.0982 0.313344,0.4063051 0.518183,0.6846777 0.375731,0.5106108 0.703683,0.9314991 1.013132,1.3002359 0.09264,0.1103891 0.196358,0.2399764 0.230484,0.2879717 0.08788,0.1235896 0.194072,0.3427915 0.245202,0.5061321 0.09295,0.2969183 0.09134,0.2555733 0.09134,2.3474057 0,1.8559061 -0.0015,1.9504341 -0.03268,2.0419811 -0.09269,0.272282 -0.266836,0.46983 -0.521038,0.591041 -0.255815,0.121981 -0.492081,0.159006 -1.017041,0.159381 l -0.331604,2.38e-4 -0.0023,0.19625 c -0.01178,1.025723 -0.773244,1.90247 -1.801527,2.07426 -0.06382,0.01066 -0.214203,0.01938 -0.334192,0.01938 -0.24577,0 -0.380793,-0.01865 -0.604614,-0.08351 -0.672305,-0.194827 -1.220232,-0.731432 -1.433358,-1.403742 -0.06886,-0.217211 -0.0957,-0.385592 -0.09807,-0.615073 l -0.0019,-0.187479 -0.728656,-1.4e-4 c -0.594742,-1.04e-4 -0.728656,-0.0044 -0.728656,-0.02336 0,-0.01929 -0.01848,-0.01935 -0.10908,-3.63e-4 -0.08559,0.01793 -0.4797191,0.02294 -1.8299573,0.02322 l -1.720877,3.63e-4 -0.010406,0.239977 C 6.8117802,13.01192 6.6189924,13.476112 6.2668508,13.851979 5.946839,14.193552 5.528371,14.425168 5.0895112,14.503618 4.8952578,14.538344 4.66251,14.548575 4.4837267,14.530248 Z M 4.9318742,14.041513 C 5.448629,13.971536 5.9158339,13.640406 6.1679825,13.165425 6.286591,12.941998 6.3359583,12.751609 6.3467082,12.476156 l 0.00902,-0.23125 H 4.7056979 3.0556629 l -0.011243,0.06654 c -0.015311,0.09063 0.017331,0.386474 0.059094,0.535578 0.1264677,0.451528 0.4790227,0.866202 0.8978654,1.056067 0.299342,0.135695 0.6096865,0.18186 0.9304948,0.138418 z m 9.5679188,-0.03388 c 0.481704,-0.11695 0.886213,-0.452432 1.102292,-0.914191 0.09549,-0.204064 0.138535,-0.385135 0.150892,-0.634739 l 0.01058,-0.213797 h -1.66321 -1.663211 l 0.01002,0.213797 c 0.01189,0.253538 0.05505,0.435258 0.151133,0.636256 0.249635,0.522223 0.697945,0.856198 1.271808,0.94745 0.146794,0.02334 0.462014,0.0059 0.62969,-0.03478 z M 2.668077,11.716958 c 0.203026,-0.493684 0.4138031,-0.780967 0.7603904,-1.03639 0.3822182,-0.281682 0.7903498,-0.414544 1.2734197,-0.414544 0.456032,0 0.8185568,0.110487 1.2102978,0.368862 0.1390685,0.09172 0.391213,0.337567 0.5110937,0.498323 0.1039744,0.139426 0.2594535,0.429648 0.296607,0.553656 l 0.020782,0.06936 h 1.7754218 c 1.9779316,0 1.8665346,0.0066 2.0348436,-0.120464 0.0611,-0.04613 0.102048,-0.09769 0.146001,-0.183858 l 0.06109,-0.119753 V 7.1155338 c 0,-4.1733735 -3.58e-4,-4.2175913 -0.03491,-4.3114484 -0.0461,-0.1252276 -0.173681,-0.2639083 -0.291983,-0.3173747 l -0.09198,-0.041569 -1.4019543,-0.00496 -1.4019542,-0.00496 0.012351,0.039863 c 0.00679,0.021924 0.029943,0.075205 0.051443,0.1184004 0.052392,0.1052575 0.1742169,0.4561166 0.2182387,0.6285328 C 8.0531942,4.1460217 7.9479512,5.11534 7.5191657,5.967689 7.010255,6.979313 6.0830693,7.729588 4.9898577,8.0143953 3.7554326,8.3359922 2.4063477,8.0248943 1.4423013,7.1963304 L 1.34168,7.1098546 l 0.00463,2.1617472 0.00463,2.1617472 0.03767,0.06981 c 0.064757,0.120007 0.173314,0.200608 0.3151821,0.234014 0.036308,0.0085 0.2644915,0.01633 0.5070735,0.0173 l 0.4410581,0.0018 z m 3.5067677,-0.06981 C 6.0627012,11.423382 5.8371995,11.165795 5.6299117,11.024679 5.5046505,10.939404 5.2796929,10.838933 5.1120286,10.793382 c -0.206911,-0.05621 -0.6197257,-0.05626 -0.8290094,-8.7e-5 -0.3124244,0.08385 -0.6701643,0.312306 -0.8611729,0.54995 -0.085605,0.106505 -0.2470818,0.367573 -0.2470818,0.399469 0,0.0074 0.6873182,0.01351 1.5273739,0.01351 h 1.5273738 z m 5.9346923,-0.03314 c 0.122337,-0.299213 0.261327,-0.505972 0.496882,-0.73915 0.409195,-0.405068 0.910501,-0.609664 1.493817,-0.609664 0.587322,0 1.087198,0.205665 1.502314,0.6181 0.22668,0.225216 0.403373,0.497405 0.513891,0.79163 l 0.03174,0.0845 0.481334,-0.0079 c 0.385877,-0.0064 0.501952,-0.0139 0.585298,-0.03799 0.203455,-0.05881 0.326256,-0.144964 0.399334,-0.280146 l 0.03774,-0.06981 0.0047,-1.5140332 0.0047,-1.514033 H 15.64598 13.630598 L 13.517605,8.2944575 C 13.361324,8.2377305 13.244616,8.1586921 13.126012,8.0292561 13.008371,7.9008719 12.942526,7.7756779 12.895084,7.590182 c -0.03146,-0.1229911 -0.034,-0.1977669 -0.034,-0.9996173 0,-0.9387329 0.0022,-0.9640043 0.09829,-1.1282859 0.05749,-0.098298 0.208627,-0.2377641 0.317368,-0.2928674 0.209207,-0.1060132 0.181948,-0.1039375 1.501034,-0.1142968 l 1.209849,-0.0095 -0.170116,-0.2268868 C 15.509512,4.4079478 15.237508,4.1778873 14.94222,4.0784121 14.83571,4.0425316 14.811786,4.0420755 13.036164,4.0420755 h -1.798192 v 3.636533 c 0,2.317908 -0.0062,3.6694485 -0.01721,3.7273085 -0.01421,0.07492 -0.05292,0.184027 -0.116535,0.328494 -0.0076,0.01716 0.09258,0.02182 0.46878,0.02182 h 0.478387 z m 3.499733,0.102949 c -0.03626,-0.121535 -0.228403,-0.389733 -0.379787,-0.530106 -0.547727,-0.507891 -1.373633,-0.585139 -2.01472,-0.188438 -0.189004,0.116954 -0.425455,0.36003 -0.541296,0.556461 -0.05039,0.08546 -0.09163,0.165718 -0.09163,0.178362 0,0.01884 0.274187,0.02299 1.519572,0.02299 h 1.519573 z M 17.655196,7.6591746 C 17.643793,7.4415413 17.617219,7.313604 17.546046,7.1336563 17.485813,6.981372 17.406626,6.862458 17.208029,6.6260632 16.999516,6.3778651 16.611502,5.8902378 16.437593,5.6578366 16.355044,5.5475233 16.306007,5.4950818 16.302475,5.5133367 c -0.0051,0.026224 -0.11977,0.029068 -1.352594,0.033531 -1.26719,0.00459 -1.351435,0.0068 -1.421003,0.037226 -0.04067,0.017792 -0.09761,0.059297 -0.126533,0.092234 l -0.05258,0.059886 v 0.8514138 c 0,0.9596587 0.001,0.9690608 0.122283,1.1068018 0.03855,0.043792 0.11081,0.099916 0.160583,0.1247188 l 0.0905,0.045096 h 1.971407 1.971407 z M 4.3753344,7.6363915 C 5.2574397,7.5405184 6.0762959,7.1032023 6.6447627,6.4243869 7.177435,5.7883143 7.4494454,5.0386643 7.4503882,4.2041142 7.4510304,3.6362517 7.3337525,3.1332319 7.0863391,2.642654 L 6.9867281,2.4451415 5.6655537,2.4406715 4.3443793,2.4362015 4.3398793,3.4784607 4.3353793,4.52072 3.5959348,5.10253 C 3.1892386,5.4225197 2.8546446,5.6819901 2.8523906,5.6791248 2.5874668,5.3423395 2.5641308,5.3089318 2.581581,5.2914343 2.5919668,5.2810205 2.8808668,5.0521452 3.2235812,4.7828227 l 0.6231172,-0.4896776 0.00452,-0.9290147 0.00452,-0.9290146 -1.0429598,0.00528 c -0.9569834,0.00484 -1.049714,0.00788 -1.1248927,0.036866 -0.1145781,0.044173 -0.2244575,0.1470909 -0.2852391,0.2671679 l -0.051696,0.102128 -0.00476,1.7845643 -0.00476,1.7845642 0.10164,0.1090679 c 0.5811918,0.6236654 1.2830749,0.9910363 2.1069392,1.102788 0.2156002,0.029245 0.5997859,0.033365 0.8253341,0.00885 z M 0.88437732,2.751722 c 0.0368995,-0.1056938 0.0108559,-0.075685 -0.0478801,0.055171 -0.22075977,0.4918206 -0.32731881,1.11214 -0.28301681,1.6475451 0.0312063,0.3771396 0.12242972,0.7610511 0.25866386,1.0885813 0.0324018,0.077899 0.032743,0.067119 0.041989,-1.3264151 0.006805,-1.0256967 0.0149695,-1.4211302 0.030244,-1.4648823 z M 1.4134524,2.0790941 c 0.2142382,-0.112579 0.2238082,-0.1133612 1.3904394,-0.1136474 0.9229462,-2.264e-4 1.051533,-0.00346 1.051533,-0.026437 0,-0.022024 0.038784,-0.026179 0.2443397,-0.026179 0.2055556,0 0.2443396,0.00416 0.2443396,0.026179 0,0.023004 0.138816,0.026179 1.1446269,0.026179 H 6.633358 L 6.5813306,1.8997406 C 6.4572991,1.7437147 6.1747999,1.4973498 5.9303276,1.332007 4.7203079,0.5136401 3.1002939,0.55548186 1.9232555,1.4355018 1.6712824,1.6238909 1.331032,1.9760867 1.1670511,2.2182547 l -0.05909,0.087264 0.094936,-0.082835 C 1.2551123,2.1771256 1.349862,2.11251 1.4134524,2.0790941 Z"
   id="path895"
   inkscape:connector-curvature="0" /><path
   style="fill:#b0f7ff;stroke:none;stroke-width:0.01745283;fill-opacity:1"
   d="M 4.4837267,14.530248 C 3.4092835,14.420107 2.5639154,13.494236 2.5639154,12.427616 V 12.24839 l -0.440684,-0.0079 C 1.7842795,12.234426 1.6583735,12.225879 1.5778305,12.203472 1.2007297,12.098564 0.92941065,11.812082 0.87199052,11.458187 0.86001481,11.384378 0.85375666,10.531884 0.85366985,8.9625213 L 0.85353801,6.5789577 0.72612975,6.3882288 C 0.33140695,5.7973332 0.11040271,5.1384988 0.06938154,4.430401 0.01474505,3.4872787 0.29088173,2.5786519 0.86442428,1.8143153 0.99846473,1.6356851 1.2931562,1.330183 1.4905663,1.1652034 2.0321807,0.71256554 2.7176118,0.40921771 3.4540097,0.29625201 3.7296793,0.25396347 4.2777715,0.25393453 4.5529159,0.29619407 5.2290225,0.40003736 5.840884,0.65614481 6.3846873,1.0629203 6.5995615,1.2236503 6.9735451,1.5967942 7.1271844,1.8037501 L 7.247033,1.9651888 h 1.5495634 c 1.0565231,0 1.5789906,0.00609 1.6420496,0.019145 0.273631,0.056644 0.565073,0.2869356 0.685056,0.5413181 0.100444,0.2129561 0.11427,0.2955178 0.11427,0.6823545 v 0.3453898 h 1.789651 c 2.013409,0 1.931975,-0.00477 2.217914,0.1300442 0.300322,0.1416009 0.55621,0.3479926 0.796693,0.6425894 0.08016,0.0982 0.313344,0.4063051 0.518183,0.6846777 0.375731,0.5106108 0.703683,0.9314991 1.013132,1.3002359 0.09264,0.1103891 0.196358,0.2399764 0.230484,0.2879717 0.08788,0.1235896 0.194072,0.3427915 0.245202,0.5061321 0.09295,0.2969183 0.09134,0.2555733 0.09134,2.3474057 0,1.8559061 -0.0015,1.9504341 -0.03268,2.0419811 -0.09269,0.272282 -0.266836,0.46983 -0.521038,0.591041 -0.255815,0.121981 -0.492081,0.159006 -1.017041,0.159381 l -0.331604,2.38e-4 -0.0023,0.19625 c -0.01178,1.025723 -0.773244,1.90247 -1.801527,2.07426 -0.06382,0.01066 -0.214203,0.01938 -0.334192,0.01938 -0.24577,0 -0.380793,-0.01865 -0.604614,-0.08351 -0.672305,-0.194827 -1.220232,-0.731432 -1.433358,-1.403742 -0.06886,-0.217211 -0.0957,-0.385592 -0.09807,-0.615073 l -0.0019,-0.187479 -0.728656,-1.4e-4 c -0.594742,-1.04e-4 -0.728656,-0.0044 -0.728656,-0.02336 0,-0.01929 -0.01848,-0.01935 -0.10908,-3.63e-4 -0.08559,0.01793 -0.4797191,0.02294 -1.8299573,0.02322 l -1.720877,3.63e-4 -0.010406,0.239977 C 6.8117802,13.01192 6.6189924,13.476112 6.2668508,13.851979 5.946839,14.193552 5.528371,14.425168 5.0895112,14.503618 4.8952578,14.538344 4.66251,14.548575 4.4837267,14.530248 Z M 4.9318742,14.041513 C 5.448629,13.971536 5.9158339,13.640406 6.1679825,13.165425 6.286591,12.941998 6.3359583,12.751609 6.3467082,12.476156 l 0.00902,-0.23125 H 4.7056979 3.0556629 l -0.011243,0.06654 c -0.015311,0.09063 0.017331,0.386474 0.059094,0.535578 0.1264677,0.451528 0.4790227,0.866202 0.8978654,1.056067 0.299342,0.135695 0.6096865,0.18186 0.9304948,0.138418 z m 9.5679188,-0.03388 c 0.481704,-0.11695 0.886213,-0.452432 1.102292,-0.914191 0.09549,-0.204064 0.138535,-0.385135 0.150892,-0.634739 l 0.01058,-0.213797 h -1.66321 -1.663211 l 0.01002,0.213797 c 0.01189,0.253538 0.05505,0.435258 0.151133,0.636256 0.249635,0.522223 0.697945,0.856198 1.271808,0.94745 0.146794,0.02334 0.462014,0.0059 0.62969,-0.03478 z M 2.668077,11.716958 c 0.203026,-0.493684 0.4138031,-0.780967 0.7603904,-1.03639 0.3822182,-0.281682 0.7903498,-0.414544 1.2734197,-0.414544 0.456032,0 0.8185568,0.110487 1.2102978,0.368862 0.1390685,0.09172 0.391213,0.337567 0.5110937,0.498323 0.1039744,0.139426 0.2594535,0.429648 0.296607,0.553656 l 0.020782,0.06936 h 1.7754218 c 1.9779316,0 1.8665346,0.0066 2.0348436,-0.120464 0.0611,-0.04613 0.102048,-0.09769 0.146001,-0.183858 l 0.06109,-0.119753 V 7.1155338 c 0,-4.1733735 -3.58e-4,-4.2175913 -0.03491,-4.3114484 -0.0461,-0.1252276 -0.173681,-0.2639083 -0.291983,-0.3173747 l -0.09198,-0.041569 -1.4019543,-0.00496 -1.4019542,-0.00496 0.012351,0.039863 c 0.00679,0.021924 0.029943,0.075205 0.051443,0.1184004 0.052392,0.1052575 0.1742169,0.4561166 0.2182387,0.6285328 C 8.0531942,4.1460217 7.9479512,5.11534 7.5191657,5.967689 7.010255,6.979313 6.0830693,7.729588 4.9898577,8.0143953 3.7554326,8.3359922 2.4063477,8.0248943 1.4423013,7.1963304 L 1.34168,7.1098546 l 0.00463,2.1617472 0.00463,2.1617472 0.03767,0.06981 c 0.064757,0.120007 0.173314,0.200608 0.3151821,0.234014 0.036308,0.0085 0.2644915,0.01633 0.5070735,0.0173 l 0.4410581,0.0018 z m 3.5067677,-0.06981 C 6.0627012,11.423382 5.8371995,11.165795 5.6299117,11.024679 5.5046505,10.939404 5.2796929,10.838933 5.1120286,10.793382 c -0.206911,-0.05621 -0.6197257,-0.05626 -0.8290094,-8.7e-5 -0.3124244,0.08385 -0.6701643,0.312306 -0.8611729,0.54995 -0.085605,0.106505 -0.2470818,0.367573 -0.2470818,0.399469 0,0.0074 0.6873182,0.01351 1.5273739,0.01351 h 1.5273738 z m 5.9346923,-0.03314 c 0.122337,-0.299213 0.261327,-0.505972 0.496882,-0.73915 0.409195,-0.405068 0.910501,-0.609664 1.493817,-0.609664 0.587322,0 1.087198,0.205665 1.502314,0.6181 0.22668,0.225216 0.403373,0.497405 0.513891,0.79163 l 0.03174,0.0845 0.481334,-0.0079 c 0.385877,-0.0064 0.501952,-0.0139 0.585298,-0.03799 0.203455,-0.05881 0.326256,-0.144964 0.399334,-0.280146 l 0.03774,-0.06981 0.0047,-1.5140332 0.0047,-1.514033 H 15.64598 13.630598 L 13.517605,8.2944575 C 13.361324,8.2377305 13.244616,8.1586921 13.126012,8.0292561 13.008371,7.9008719 12.942526,7.7756779 12.895084,7.590182 c -0.03146,-0.1229911 -0.034,-0.1977669 -0.034,-0.9996173 0,-0.9387329 0.0022,-0.9640043 0.09829,-1.1282859 0.05749,-0.098298 0.208627,-0.2377641 0.317368,-0.2928674 0.209207,-0.1060132 0.181948,-0.1039375 1.501034,-0.1142968 l 1.209849,-0.0095 -0.170116,-0.2268868 C 15.509512,4.4079478 15.237508,4.1778873 14.94222,4.0784121 14.83571,4.0425316 14.811786,4.0420755 13.036164,4.0420755 h -1.798192 v 3.636533 c 0,2.317908 -0.0062,3.6694485 -0.01721,3.7273085 -0.01421,0.07492 -0.05292,0.184027 -0.116535,0.328494 -0.0076,0.01716 0.09258,0.02182 0.46878,0.02182 h 0.478387 z m 3.499733,0.102949 c -0.03626,-0.121535 -0.228403,-0.389733 -0.379787,-0.530106 -0.547727,-0.507891 -1.373633,-0.585139 -2.01472,-0.188438 -0.189004,0.116954 -0.425455,0.36003 -0.541296,0.556461 -0.05039,0.08546 -0.09163,0.165718 -0.09163,0.178362 0,0.01884 0.274187,0.02299 1.519572,0.02299 h 1.519573 z M 17.655196,7.6591746 C 17.643793,7.4415413 17.617219,7.313604 17.546046,7.1336563 17.485813,6.981372 17.406626,6.862458 17.208029,6.6260632 16.999516,6.3778651 16.611502,5.8902378 16.437593,5.6578366 16.355044,5.5475233 16.306007,5.4950818 16.302475,5.5133367 c -0.0051,0.026224 -0.11977,0.029068 -1.352594,0.033531 -1.26719,0.00459 -1.351435,0.0068 -1.421003,0.037226 -0.04067,0.017792 -0.09761,0.059297 -0.126533,0.092234 l -0.05258,0.059886 v 0.8514138 c 0,0.9596587 0.001,0.9690608 0.122283,1.1068018 0.03855,0.043792 0.11081,0.099916 0.160583,0.1247188 l 0.0905,0.045096 h 1.971407 1.971407 z M 4.3753344,7.6363915 C 5.2574397,7.5405184 6.0762959,7.1032023 6.6447627,6.4243869 7.177435,5.7883143 7.4494454,5.0386643 7.4503882,4.2041142 7.4510304,3.6362517 7.3337525,3.1332319 7.0863391,2.642654 L 6.9867281,2.4451415 5.6655537,2.4406715 4.3443793,2.4362015 4.3398793,3.4784607 4.3353793,4.52072 3.5959348,5.10253 C 3.1892386,5.4225197 2.8546446,5.6819901 2.8523906,5.6791248 2.5874668,5.3423395 2.5641308,5.3089318 2.581581,5.2914343 2.5919668,5.2810205 2.8808668,5.0521452 3.2235812,4.7828227 l 0.6231172,-0.4896776 0.00452,-0.9290147 0.00452,-0.9290146 -1.0429598,0.00528 c -0.9569834,0.00484 -1.049714,0.00788 -1.1248927,0.036866 -0.1145781,0.044173 -0.2244575,0.1470909 -0.2852391,0.2671679 l -0.051696,0.102128 -0.00476,1.7845643 -0.00476,1.7845642 0.10164,0.1090679 c 0.5811918,0.6236654 1.2830749,0.9910363 2.1069392,1.102788 0.2156002,0.029245 0.5997859,0.033365 0.8253341,0.00885 z M 0.88437732,2.751722 c 0.0368995,-0.1056938 0.0108559,-0.075685 -0.0478801,0.055171 -0.22075977,0.4918206 -0.32731881,1.11214 -0.28301681,1.6475451 0.0312063,0.3771396 0.12242972,0.7610511 0.25866386,1.0885813 0.0324018,0.077899 0.032743,0.067119 0.041989,-1.3264151 0.006805,-1.0256967 0.0149695,-1.4211302 0.030244,-1.4648823 z M 1.4134524,2.0790941 c 0.2142382,-0.112579 0.2238082,-0.1133612 1.3904394,-0.1136474 0.9229462,-2.264e-4 1.051533,-0.00346 1.051533,-0.026437 0,-0.022024 0.038784,-0.026179 0.2443397,-0.026179 0.2055556,0 0.2443396,0.00416 0.2443396,0.026179 0,0.023004 0.138816,0.026179 1.1446269,0.026179 H 6.633358 L 6.5813306,1.8997406 C 6.4572991,1.7437147 6.1747999,1.4973498 5.9303276,1.332007 4.7203079,0.5136401 3.1002939,0.55548186 1.9232555,1.4355018 1.6712824,1.6238909 1.331032,1.9760867 1.1670511,2.2182547 l -0.05909,0.087264 0.094936,-0.082835 C 1.2551123,2.1771256 1.349862,2.11251 1.4134524,2.0790941 Z"
   id="path897"
   inkscape:connector-curvature="0" /><path
   style="fill:#00f7ff;stroke:none;stroke-width:0.01745283;fill-opacity:1"
   d="M 4.3979417,14.513187 C 3.3557752,14.348326 2.5726418,13.448695 2.5726418,12.416359 v -0.171453 l -0.056722,-10e-4 C 2.4847232,12.243318 2.2746347,12.236452 2.0490569,12.228624 1.6966698,12.216395 1.6229407,12.208981 1.525472,12.175977 1.3717473,12.123924 1.2737785,12.064558 1.1548947,11.951418 1.0324839,11.834921 0.95755219,11.72094 0.90894979,11.577303 0.87219816,11.468688 0.87202787,11.458521 0.86611714,9.0198543 L 0.86018281,6.571454 0.72056677,6.3582977 C 0.38761731,5.8499734 0.18218104,5.2972892 0.10372882,4.6988219 0.06876426,4.4320971 0.0692152,3.9650646 0.10470263,3.6902569 0.23639241,2.670477 0.78041174,1.7290297 1.6127361,1.0805444 2.0023894,0.77695553 2.5476082,0.51541067 3.0599566,0.3863036 3.4259101,0.29408669 3.5313834,0.28248474 4.0037739,0.28248474 c 0.4723905,0 0.5778637,0.0116019 0.9438173,0.10381886 0.5375636,0.13546103 1.0930177,0.41141023 1.5170317,0.7536602 0.1712523,0.1382291 0.5421703,0.5196641 0.6683211,0.6872707 L 7.232578,1.95961 8.8217994,1.972011 c 1.4959036,0.011673 1.5955656,0.014362 1.6972726,0.045795 0.345563,0.1067985 0.632814,0.4408768 0.691834,0.8046152 0.0099,0.061269 0.01814,0.24951 0.01821,0.4183126 l 1.39e-4,0.306914 1.7806,0.011833 c 1.05665,0.00702 1.835425,0.019183 1.915448,0.029909 0.104413,0.013997 0.178384,0.039223 0.327733,0.1117662 0.419936,0.2039747 0.610038,0.3944092 1.263708,1.2659183 0.47905,0.638696 0.691239,0.9112816 1.06988,1.3744031 0.285419,0.3491009 0.396368,0.5488351 0.487168,0.8770121 0.03407,0.1231485 0.03722,0.2001087 0.05325,1.3002358 0.01014,0.6962908 0.01103,1.5299707 0.0022,2.0607917 l -0.01484,0.891451 -0.07585,0.153031 c -0.1261,0.254416 -0.32143,0.41754 -0.618251,0.516316 -0.191977,0.06389 -0.350877,0.08312 -0.802085,0.09709 l -0.379206,0.01174 -0.0082,0.0546 c -0.0045,0.03003 -0.01207,0.144921 -0.01674,0.25531 -0.02096,0.495425 -0.230881,0.954571 -0.611525,1.337513 -0.587709,0.591259 -1.416548,0.782817 -2.210769,0.510945 -0.773382,-0.264737 -1.373057,-1.045792 -1.405809,-1.831005 -0.0042,-0.100791 -0.01154,-0.215361 -0.01629,-0.254601 l -0.0087,-0.07134 -0.717404,-0.01148 c -0.394572,-0.0063 -0.726124,-0.01872 -0.736782,-0.02756 -0.01129,-0.0094 -0.05215,-0.01005 -0.09787,-0.0016 -0.04317,0.0079 -0.8658328,0.02018 -1.8281382,0.02719 l -1.7496462,0.01275 -1.396e-4,0.115351 c -2.217e-4,0.178885 -0.031483,0.413547 -0.078993,0.592968 -0.1983448,0.749047 -0.8280752,1.349614 -1.5963358,1.522408 -0.1732161,0.03896 -0.601231,0.0574 -0.757719,0.03264 z m 0.7402661,-0.504742 c 0.5163047,-0.14647 0.9641286,-0.568527 1.1356126,-1.070272 0.049567,-0.145027 0.086086,-0.394409 0.086086,-0.587862 V 12.244906 H 4.7041706 3.0484353 l -0.010609,0.06537 c -0.012956,0.07984 0.015464,0.356362 0.052474,0.51057 0.033882,0.14117 0.1350736,0.361719 0.2331744,0.508206 0.095778,0.143018 0.3664653,0.408734 0.4926962,0.483648 0.1558026,0.09246 0.369594,0.178229 0.5335119,0.214028 0.2068717,0.04518 0.5966705,0.03614 0.7885244,-0.01829 z m 9.3735502,0.0015 c 0.569283,-0.147628 1.013543,-0.577657 1.183421,-1.145511 0.03828,-0.127944 0.07142,-0.372104 0.07166,-0.527948 l 1.43e-4,-0.09163 h -1.669363 -1.669364 l 0.01159,0.205071 c 0.0154,0.272485 0.06296,0.464041 0.167916,0.676297 0.233886,0.473017 0.637962,0.7862 1.171568,0.908036 0.155079,0.03541 0.553064,0.02219 0.732427,-0.02432 z m 2.580204,-2.271805 c 0.245413,-0.02726 0.441817,-0.140029 0.530912,-0.304839 0.03773,-0.06979 0.03774,-0.07029 0.04338,-1.5838442 l 0.0056,-1.514033 h -2.00891 -2.00891 L 13.51506,8.2818298 c -0.301437,-0.1162463 -0.508714,-0.3444112 -0.60674,-0.667883 -0.02261,-0.074624 -0.02845,-0.2297529 -0.034,-0.904126 -0.0073,-0.8842576 0.0028,-1.0635059 0.06738,-1.1948472 0.05744,-0.1168662 0.215957,-0.2680232 0.361011,-0.3442464 0.169307,-0.088969 0.247218,-0.094374 1.570423,-0.1089521 0.617093,-0.0068 1.119734,-0.018574 1.116981,-0.026167 -0.0028,-0.00759 -0.07961,-0.1101788 -0.170806,-0.2279674 -0.293173,-0.3786743 -0.560185,-0.6129836 -0.816635,-0.716595 l -0.09961,-0.040244 -1.836084,-0.00467 -1.836084,-0.00467 -0.0053,3.6872221 -0.0053,3.6872222 -0.05684,0.148349 c -0.03126,0.08159 -0.05869,0.156203 -0.06095,0.165802 -0.0026,0.01123 0.167457,0.01911 0.476885,0.02209 l 0.480992,0.0046 0.0407,-0.100624 c 0.127893,-0.31617 0.290322,-0.556257 0.535304,-0.791239 0.336217,-0.322493 0.690983,-0.50006 1.129035,-0.565104 0.687593,-0.102098 1.310865,0.09408 1.798899,0.566207 0.2386,0.230823 0.442473,0.536264 0.554554,0.830826 l 0.02721,0.0715 0.399505,-0.0069 c 0.219728,-0.0038 0.465617,-0.01426 0.54642,-0.02323 z M 2.6883307,11.690778 c 0.014654,-0.036 0.05736,-0.129593 0.094902,-0.207993 0.3096535,-0.646661 0.9385685,-1.105885 1.630683,-1.190702 0.5341536,-0.06546 1.0331168,0.04868 1.4694691,0.336154 0.1284714,0.08464 0.3832747,0.32312 0.5005919,0.468529 0.090967,0.112748 0.274393,0.438007 0.3159409,0.560239 l 0.03414,0.100438 1.8156366,-0.005 1.8156368,-0.005 0.08114,-0.03751 c 0.101487,-0.04691 0.201143,-0.146051 0.26376,-0.262385 l 0.0482,-0.08956 -0.0046,-4.2644737 -0.0046,-4.2644735 -0.04051,-0.075909 C 10.648172,2.6396122 10.543872,2.5355811 10.439247,2.4843511 l -0.0933,-0.045684 -1.4083562,-0.00549 c -0.7745959,-0.00302 -1.4083539,0.00109 -1.4083511,0.00914 2.6e-6,0.00804 0.028149,0.078636 0.062547,0.1568708 C 7.831153,3.1436012 7.9465681,3.7428525 7.9251491,4.3300472 7.9036624,4.9190972 7.7819907,5.4020261 7.5206106,5.9357076 7.1340153,6.7250515 6.5091877,7.3443161 5.7054248,7.7347325 5.1504327,8.004312 4.6238043,8.1260378 4.0125003,8.1260378 3.0888848,8.1260378 2.2416148,7.8277382 1.5226683,7.2494389 1.4299053,7.174823 1.3487552,7.1137737 1.3423348,7.1137737 c -0.00642,0 -0.00904,0.9719045 -0.00583,2.1597877 l 0.00584,2.1597876 0.037605,0.06981 c 0.062193,0.115458 0.1794808,0.204651 0.3113205,0.236747 0.028797,0.007 0.2589207,0.01355 0.5113859,0.01453 l 0.4590272,0.0018 z m 3.489151,-0.05236 C 6.0264592,11.352189 5.7608065,11.07788 5.5083656,10.9475 5.4229319,10.903375 5.2791714,10.841814 5.188898,10.810699 c -0.1611182,-0.05553 -0.1699047,-0.05658 -0.4782845,-0.05697 -0.3563549,-4.5e-4 -0.4405593,0.01537 -0.6806232,0.127867 -0.2507432,0.117502 -0.4901654,0.296701 -0.6182787,0.46276 -0.076155,0.09871 -0.2456736,0.372788 -0.2456736,0.397203 0,0.0081 0.6915604,0.01467 1.5368008,0.01467 h 1.5368008 z m 9.4403763,0.07854 c -0.03657,-0.121135 -0.244641,-0.409912 -0.393623,-0.546289 -0.185496,-0.1698 -0.439097,-0.307135 -0.697571,-0.377763 -0.125086,-0.03418 -0.189105,-0.04022 -0.426428,-0.04022 -0.314047,0 -0.463606,0.02961 -0.699074,0.138402 -0.310988,0.143686 -0.59661,0.411008 -0.769541,0.720237 -0.05145,0.09201 -0.05889,0.116491 -0.03919,0.128966 0.01356,0.0086 0.691012,0.01552 1.5308,0.01567 l 1.506483,2.68e-4 z M 17.662464,7.6635497 C 17.637841,7.2516887 17.548376,7.0367283 17.24599,6.6628768 17.132131,6.5221082 16.921093,6.2577123 16.777016,6.0753303 16.299036,5.4702733 16.328795,5.5034345 16.276129,5.5171851 c -0.02566,0.0067 -0.643534,0.017455 -1.373063,0.023903 -1.473461,0.013023 -1.386173,0.00541 -1.508425,0.1315433 l -0.05665,0.058453 0.0075,0.8789624 c 0.0051,0.5955184 0.01402,0.8990288 0.02764,0.9411881 0.02824,0.087456 0.130702,0.2008688 0.236095,0.261317 l 0.08956,0.051366 1.987821,1.571e-4 1.98782,1.57e-4 -0.012,-0.2006956 z M 4.4902132,7.6275436 C 6.004611,7.4049262 7.1846962,6.2392021 7.419246,4.734156 7.4618586,4.4607213 7.4612193,3.9107655 7.4179842,3.6493869 7.3546075,3.2662358 7.2526236,2.9553402 7.0773412,2.6109435 L 6.9929554,2.4451416 5.6641662,2.4406693 4.3353777,2.4361972 v 1.0368199 1.03682 L 4.0954012,4.6985479 C 3.6715517,5.0318512 2.9847745,5.5689954 2.9186318,5.6189262 L 2.85448,5.667354 2.7223445,5.4961063 C 2.6496699,5.40192 2.5905784,5.3170048 2.5910304,5.3074057 2.5914825,5.2978067 2.8722291,5.0694299 3.2149121,4.7999017 L 3.837972,4.3098505 3.8488938,4.1890526 c 0.01578,-0.1745339 0.017724,-1.7495144 0.00217,-1.7562175 -0.0072,-0.0031 -0.4882429,-0.0016 -1.0689858,0.00333 l -1.0558963,0.00897 -0.092829,0.051423 C 1.529882,2.5538814 1.4643971,2.6212469 1.3913547,2.7455093 l -0.049137,0.083594 -0.00584,1.7958607 -0.00584,1.7958606 0.1803694,0.1818782 c 0.5780335,0.582869 1.2719181,0.93442 2.0390958,1.0330913 0.2018488,0.025961 0.7395811,0.021242 0.9402129,-0.00825 z M 0.86334985,4.157122 c 0.009272,-0.8822181 0.0208594,-1.3811926 0.0328044,-1.4126105 0.0223639,-0.058821 0.0226234,-0.063757 0.003353,-0.063757 -0.0472077,0 -0.22630759,0.51063 -0.28987495,0.8264596 -0.12964664,0.6441396 -0.079561,1.2895264 0.14901738,1.9201888 0.0453032,0.1249944 0.0594471,0.1489997 0.0732542,0.1243279 0.0104173,-0.018615 0.0227187,-0.5641652 0.031446,-1.3946088 z M 1.4361617,2.081038 C 1.4996807,2.047726 1.5987739,2.012347 1.6563682,2.002418 1.7144052,1.992413 2.2239924,1.979129 2.7995286,1.972619 3.484403,1.964869 3.8458019,1.954605 3.8609684,1.942462 3.8937164,1.916243 4.3085383,1.91822 4.3405022,1.944742 4.3592962,1.96034 4.6465372,1.964332 5.5063929,1.960948 L 6.6473459,1.9564623 6.5167155,1.8183991 C 5.961402,1.2314881 5.2002631,0.85288697 4.3887203,0.75990442 4.1313898,0.73042076 3.6300526,0.74750174 3.3806,0.79425193 2.5843221,0.94348322 1.9143662,1.3279948 1.3727604,1.9466229 1.2539636,2.0823138 1.1066041,2.28045 1.1066041,2.3044904 c 0,0.00529 0.048165,-0.029199 0.107034,-0.076636 0.058869,-0.047437 0.1590044,-0.1135043 0.2225236,-0.1468164 z"
   id="path2318"
   inkscape:connector-curvature="0" /></svg>