<?xml version="1.0" encoding="UTF-8" standalone="no"?>
<!-- Generator: Adobe Illustrator 21.0.0, SVG Export Plug-In . SVG Version: 6.00 Build 0)  -->

<svg
   xmlns:dc="http://purl.org/dc/elements/1.1/"
   xmlns:cc="http://creativecommons.org/ns#"
   xmlns:rdf="http://www.w3.org/1999/02/22-rdf-syntax-ns#"
   xmlns:svg="http://www.w3.org/2000/svg"
   xmlns="http://www.w3.org/2000/svg"
   xmlns:sodipodi="http://sodipodi.sourceforge.net/DTD/sodipodi-0.dtd"
   xmlns:inkscape="http://www.inkscape.org/namespaces/inkscape"
   version="1.1"
   id="Слой_1"
   x="0px"
   y="0px"
   viewBox="0 0 16 15.2"
   style="enable-background:new 0 0 16 15.2;"
   xml:space="preserve"
   sodipodi:docname="icon5.svg"
   inkscape:version="0.92.4 (5da689c313, 2019-01-14)"><metadata
   id="metadata6445"><rdf:RDF><cc:Work
       rdf:about=""><dc:format>image/svg+xml</dc:format><dc:type
         rdf:resource="http://purl.org/dc/dcmitype/StillImage" /><dc:title></dc:title></cc:Work></rdf:RDF></metadata><defs
   id="defs6443" /><sodipodi:namedview
   pagecolor="#ffffff"
   bordercolor="#666666"
   borderopacity="1"
   objecttolerance="10"
   gridtolerance="10"
   guidetolerance="10"
   inkscape:pageopacity="0"
   inkscape:pageshadow="2"
   inkscape:window-width="1920"
   inkscape:window-height="1017"
   id="namedview6441"
   showgrid="false"
   inkscape:zoom="15.526316"
   inkscape:cx="8"
   inkscape:cy="7.5999999"
   inkscape:window-x="-8"
   inkscape:window-y="-8"
   inkscape:window-maximized="1"
   inkscape:current-layer="Слой_1" />
<style
   type="text/css"
   id="style6429">
	.st0{fill:none;stroke:#000000;stroke-width:0.5;stroke-miterlimit:10;}
</style>
<g
   id="листья">
	<path
   class="st0"
   d="M2.4,14.9c0,0,2.9-5.9,9.9-5.3"
   id="path6431" />
	<path
   class="st0"
   d="M4.3,12.3c0,0-0.8-5.4,5.1-5.5c4.5,0.3,6.1,2.7,6.1,2.7s-2,4.3-7,4.8c-1.6,0.1-3.6-1-3.6-1"
   id="path6433" />
	<path
   class="st0"
   d="M2.8,12.1c0,0-0.1-2.2-0.4-3.2S2,5.3,2.7,3.8"
   id="path6435" />
	<path
   class="st0"
   d="M2.3,9.4c0,0-2-1-1.8-3.8S3,0.6,3,0.6s4.1,3.7,0.6,7.9"
   id="path6437" />
</g>
<path
   style="fill:#b0f7ff;fill-opacity:1;stroke:none;stroke-width:0.77288133;stroke-miterlimit:4;stroke-dasharray:none;stroke-opacity:1"
   d="M 2.5646382,11.744576 C 2.5456844,11.558602 2.5142595,11.218051 2.4948049,10.987796 2.3947162,9.8031987 2.2786366,9.2484972 2.187835,9.5209018 2.1534043,9.6241942 1.5396667,9.1374161 1.2235092,8.7560597 0.04949299,7.3399343 -0.03792244,5.2414365 0.98724623,3.0843233 1.3251604,2.3732997 2.0293725,1.3358824 2.5694344,0.75350647 L 3.0114643,0.27684346 3.4136371,0.71574419 C 5.0331681,2.4831768 5.6031568,4.6448885 4.9515039,6.5481838 4.7376765,7.1727137 4.304944,7.9739965 3.954701,8.3939461 L 3.781356,8.6017913 3.620339,8.477159 C 3.5019456,8.3855191 3.4763715,8.3292154 3.5237289,8.2644608 3.8763898,7.7822505 4.2576949,7.1446498 4.4095395,6.7832485 4.9446444,5.5096605 4.8951905,4.1064626 4.2680322,2.7681418 3.9967151,2.1891663 3.4752616,1.3943022 3.1831706,1.1144612 L 3.0019363,0.94082782 2.7697636,1.1821088 C 2.0936585,1.8847378 1.2108731,3.4557349 0.91506632,4.4827118 0.72250839,5.1512311 0.67167607,6.3540472 0.81097183,6.9458396 0.9605377,7.5812646 1.3148339,8.2347294 1.7554267,8.687795 1.964987,8.9032872 2.1510512,9.0649939 2.1689025,9.0471423 2.186754,9.0292913 2.1528324,8.7992709 2.0935214,8.5359869 2.0134459,8.1805278 1.9854988,7.7422423 1.984967,6.8335592 1.9842076,5.5362638 2.0366167,5.1175849 2.3089665,4.2452272 l 0.1646277,-0.5273151 0.2086297,0.099489 0.2086297,0.099489 -0.142751,0.3956231 C 2.5007132,4.9981326 2.4285239,5.5905498 2.4330508,6.897966 c 0.00381,1.09894 0.021969,1.2975854 0.1781194,1.9479985 0.1571945,0.65476 0.3070779,1.7512245 0.387427,2.8342045 l 0.029866,0.402543 H 2.8137813 c -0.2116673,0 -0.2151656,-0.0047 -0.2491431,-0.338136 z"
   id="path6447"
   inkscape:connector-curvature="0" /><path
   style="fill:#b0f7ff;fill-opacity:1;stroke:none;stroke-width:0.77288133;stroke-miterlimit:4;stroke-dasharray:none;stroke-opacity:1"
   d="m 2.4166815,14.865439 -0.1999072,-0.09467 0.192729,-0.32962 c 0.2602837,-0.445157 0.8145586,-1.179026 1.270395,-1.682024 l 0.3749111,-0.413699 0.033635,-0.920338 C 4.1441996,9.899503 4.5294053,8.9174205 5.4246614,8.0183974 6.2972663,7.1421206 7.4560616,6.6911207 8.9983051,6.627545 11.115919,6.540251 13.439793,7.3252253 15.006663,8.6570894 c 0.187309,0.1592155 0.431079,0.4037704 0.541712,0.5434555 l 0.20115,0.2539727 -0.164133,0.3318937 C 15.1065,10.754781 13.8449,12.167724 12.79616,12.910243 c -1.310725,0.928008 -3.2554268,1.619926 -4.552954,1.619926 -0.5488958,0 -1.5948351,-0.251728 -2.4330365,-0.585563 -1.050604,-0.41843 -1.0014408,-0.383004 -0.8738734,-0.629691 l 0.1043757,-0.201841 0.3686471,0.185933 c 0.866477,0.437022 2.1210028,0.780315 2.8515774,0.780315 0.7920354,0 2.2714757,-0.395659 3.1848667,-0.851755 1.188698,-0.593569 2.625767,-1.876604 3.368968,-3.007862 0.219356,-0.3338904 0.398828,-0.6410464 0.398828,-0.6825685 0,-0.110502 -0.680108,-0.7381799 -1.127118,-1.0402284 C 12.64733,7.5244903 10.436313,6.9276989 8.7880163,7.0667723 6.6925342,7.2435764 5.2908176,8.2494625 4.7487521,9.9653895 4.6003846,10.435052 4.4077985,11.796725 4.4795867,11.868513 4.4984616,11.887388 4.754844,11.715552 5.0493252,11.486654 6.3383718,10.484692 7.8413864,9.8028892 9.4146234,9.5064519 10.05343,9.3860848 11.244064,9.3064214 11.770209,9.3488435 l 0.517667,0.041739 -0.02542,0.2177535 -0.02542,0.2177536 -0.556652,-0.038465 C 10.689131,9.7191275 9.2666804,9.9210847 8.1610169,10.287298 6.0710528,10.979527 4.0362891,12.624343 2.8447351,14.584755 l -0.2281463,0.375359 z"
   id="path6449"
   inkscape:connector-curvature="0" /><path
   style="fill:#00f7ff;stroke:none;stroke-width:0.06440678;fill-opacity:0.99497485"
   d="M 2.4143686,14.83244 2.2711101,14.752834 2.5244104,14.335569 C 2.7819412,13.911336 3.2173574,13.3409 3.7603936,12.716317 L 4.0614651,12.370033 4.12964,11.405186 C 4.2105242,10.260468 4.3061675,9.8478914 4.6565818,9.132117 4.8567788,8.7231841 5.0353229,8.4798546 5.4127213,8.1016085 6.4227627,7.0892987 7.5594723,6.6738062 9.320339,6.6732878 c 2.23112,-6.568e-4 4.545164,0.8914039 5.946517,2.2923744 l 0.471941,0.4718121 -0.198842,0.3730654 c -0.47728,0.8954703 -1.693754,2.2620933 -2.65054,2.9776963 -0.876968,0.655906 -2.085414,1.211518 -3.2907505,1.513001 -1.25098,0.312899 -2.164636,0.21512 -3.8197665,-0.408788 -0.8205937,-0.309327 -0.9168587,-0.378898 -0.8073646,-0.58349 0.041599,-0.07773 0.1096398,-0.12643 0.1512027,-0.108228 0.041563,0.0182 0.3074334,0.134808 0.5908233,0.259126 1.7108661,0.750522 2.909696,0.800123 4.7268306,0.195568 0.86275,-0.287034 1.438242,-0.59147 2.196898,-1.162163 1.189704,-0.894945 2.649935,-2.6201464 2.551084,-3.0139988 C 15.146053,9.3106505 14.458108,8.6986708 13.929245,8.3591736 12.690026,7.5636727 10.837144,7.0377776 9.2881356,7.041909 8.0541018,7.0452003 7.1045521,7.3032866 6.2594699,7.8650962 5.5787989,8.3176054 5.0345607,9.0260408 4.7853149,9.7840052 4.5479306,10.505899 4.3657392,11.889491 4.5080646,11.889491 c 0.027741,0 0.3090843,-0.190618 0.6252082,-0.423596 C 6.1069493,10.748312 6.9613502,10.289716 7.9947268,9.930021 9.101685,9.544714 9.8042239,9.4287024 11.091525,9.4186404 l 1.127119,-0.00881 v 0.1610169 0.161017 l -1.094915,0.040323 C 8.9658164,9.8516572 7.2657718,10.4046 5.6658296,11.54738 c -1.0336481,0.738297 -2.2379074,2.016512 -2.8236581,2.997064 -0.1210756,0.202682 -0.2346291,0.368307 -0.2523409,0.368057 -0.017712,-2.58e-4 -0.09667,-0.03628 -0.175462,-0.08006 z"
   id="path991"
   inkscape:connector-curvature="0" /><path
   style="fill:#00f7ff;stroke:none;stroke-width:0.06440678;fill-opacity:1"
   d="M 2.7071817,12.002203 C 2.6321325,11.942076 2.5803588,11.650322 2.5026739,10.849764 2.3929982,9.7195336 2.3255203,9.4239258 2.189146,9.4762576 2.0963893,9.511852 1.4677199,9.0069125 1.2037757,8.6848207 0.90825905,8.3242007 0.54617928,7.548392 0.43029969,7.0275357 0.27040367,6.3088335 0.32501553,5.1119948 0.55376746,4.3216949 0.89152958,3.1547829 1.9333739,1.403266 2.7698967,0.59600579 L 3.0265996,0.34828277 3.3073676,0.65157998 C 4.26495,1.686 4.8730619,2.8452668 5.1072043,4.082677 5.2294098,4.7285161 5.1536971,5.8262986 4.9441939,6.4462162 4.6494973,7.3182203 3.9124369,8.5840324 3.7340121,8.5245573 3.5247009,8.4547874 3.5407056,8.2980618 3.7954856,7.9225819 4.4836826,6.9083561 4.7799376,6.0196371 4.7792098,4.9715616 4.7783845,3.7829331 4.3903867,2.6859409 3.5716808,1.5574959 3.0620291,0.85502886 3.0261007,0.8400481 2.7094186,1.1979661 2.0630095,1.9285459 1.2136576,3.4381253 0.91564161,4.3861016 0.73629159,4.9566065 0.66203278,6.404363 0.78480509,6.9369025 0.92414698,7.5413144 1.2769881,8.191086 1.7188832,8.6570459 1.9435605,8.8939585 2.1452658,9.0701117 2.1671173,9.0484974 2.1889687,9.0268825 2.1627112,8.737052 2.1087674,8.4044296 1.9943206,7.6987407 1.9788786,6.1339556 2.0792404,5.4123808 2.1376402,4.9925021 2.4252488,3.8529433 2.4888803,3.7893118 2.5405566,3.7376355 2.8487918,3.9354885 2.8226678,4.0035666 2.3485373,5.2391309 2.2602821,7.3481024 2.6112532,9.0555931 2.776307,9.8585878 2.9760451,11.383192 2.9761931,11.841186 c 8.38e-5,0.255555 -0.0864,0.307319 -0.2690114,0.161017 z"
   id="path993"
   inkscape:connector-curvature="0" /></svg>